<svg width="24" height="24" viewBox="0 0 24 24" fill="none" xmlns="http://www.w3.org/2000/svg">
<path fill-rule="evenodd" clip-rule="evenodd" d="M11.8434 2.00002C10.1922 1.99975 9.18453 1.99959 8.345 2.27934C6.65096 2.84384 5.32281 4.20594 4.77238 5.94329C4.4996 6.80428 4.49976 7.83765 4.50002 9.53109L4.50003 17.0572C4.50003 17.98 4.50002 18.7175 4.54364 19.2854C4.58662 19.845 4.67803 20.3757 4.95505 20.7969C5.51093 21.6421 6.47973 22.099 7.46718 21.9819C7.95927 21.9235 8.41172 21.6492 8.85397 21.3185C9.3028 20.9829 9.84878 20.5029 10.5319 19.9024L10.5569 19.8805C11.2254 19.2928 11.4157 19.1418 11.597 19.0761C11.8578 18.9816 12.1422 18.9816 12.403 19.0761C12.5843 19.1418 12.7746 19.2928 13.4431 19.8805L13.4681 19.9024C14.1512 20.5029 14.6972 20.9829 15.146 21.3185C15.5883 21.6492 16.0407 21.9235 16.5328 21.9819C17.5203 22.099 18.4891 21.6421 19.0449 20.7969C19.322 20.3757 19.4134 19.845 19.4564 19.2854C19.5 18.7175 19.5 17.98 19.5 17.0573L19.5 9.5311C19.5002 7.83766 19.5004 6.80428 19.2276 5.94329C18.6772 4.20594 17.349 2.84384 15.655 2.27934C14.8155 1.99959 13.8078 1.99975 12.1566 2.00002H11.8434ZM8.79357 3.69519C9.38555 3.49793 10.1423 3.48875 12 3.48875C13.8577 3.48875 14.6145 3.49793 15.2064 3.69519C16.4585 4.11243 17.4402 5.1192 17.8471 6.40332C18.0394 7.01043 18.0484 7.7865 18.0484 9.69171V17.0235C18.0484 17.9877 18.0478 18.6661 18.0092 19.1685C17.9695 19.686 17.8954 19.8825 17.8415 19.9644C17.5889 20.3486 17.1485 20.5563 16.6997 20.503C16.6039 20.4917 16.4103 20.4215 16.0013 20.1156C15.6043 19.8187 15.1016 19.3776 14.3878 18.7501L14.2918 18.6656C13.7672 18.2036 13.358 17.8433 12.8866 17.6725C12.3129 17.4646 11.6871 17.4646 11.1134 17.6725C10.642 17.8433 10.2328 18.2036 9.70822 18.6656L9.6122 18.7501C8.89839 19.3776 8.39574 19.8187 7.99874 20.1156C7.58972 20.4215 7.3961 20.4917 7.30034 20.503C6.8515 20.5563 6.41114 20.3486 6.15847 19.9644C6.10456 19.8825 6.03051 19.686 5.99076 19.1685C5.95218 18.6661 5.95164 17.9877 5.95164 17.0235V9.69171C5.95164 7.7865 5.96059 7.01043 6.15294 6.40332C6.55978 5.1192 7.54145 4.11243 8.79357 3.69519Z" fill="#5E5F60"/>
</svg>
