<svg width="24" height="24" viewBox="0 0 24 24" fill="none" xmlns="http://www.w3.org/2000/svg">
<path d="M4.5 9.50606C4.5 7.51022 4.5 6.5123 4.7622 5.70469C5.29211 4.07245 6.57078 2.79275 8.20169 2.26241C9.00865 2 10.0058 2 12 2C13.9942 2 14.9913 2 15.7983 2.26241C17.4292 2.79275 18.7079 4.07245 19.2378 5.70469C19.5 6.5123 19.5 7.51022 19.5 9.50606V17.4275C19.5 19.4832 19.5 20.5111 19.1336 21.0547C18.686 21.7187 17.9059 22.0778 17.1109 21.9858C16.46 21.9104 15.6802 21.2415 14.1207 19.9036C13.4342 19.3147 13.0909 19.0203 12.7139 18.8869C12.252 18.7236 11.748 18.7236 11.2861 18.8869C10.9091 19.0203 10.5658 19.3147 9.87931 19.9036C8.31975 21.2415 7.53997 21.9104 6.88914 21.9858C6.09405 22.0778 5.31397 21.7187 4.86638 21.0547C4.5 20.5111 4.5 19.4832 4.5 17.4275V9.50606Z" fill="white"/>
</svg>
