<svg width="20" height="20" viewBox="0 0 20 20" fill="none" xmlns="http://www.w3.org/2000/svg">
<path d="M11.5625 5.3125H8.4375C7.37823 5.3125 6.50937 5.3125 5.7884 5.35504C4.50405 5.43081 3.68901 5.64158 3.10279 6.22779C2.1875 7.14309 2.1875 8.61625 2.1875 11.5625C2.1875 14.5087 2.1875 15.982 3.10279 16.8972C4.01809 17.8125 5.49122 17.8125 8.4375 17.8125H11.5625C14.5087 17.8125 15.982 17.8125 16.8972 16.8972C17.8125 15.982 17.8125 14.5087 17.8125 11.5625C17.8125 8.61625 17.8125 7.14309 16.8972 6.22779C16.311 5.64158 15.4959 5.43081 14.2116 5.35504C13.4906 5.3125 12.6218 5.3125 11.5625 5.3125Z" stroke="#121116" stroke-width="1.25"/>
<path d="M5.78857 5.35504C6.43189 5.33873 6.99941 4.88665 7.21831 4.2815C7.22504 4.26288 7.23195 4.24218 7.24575 4.20076L7.2658 4.14062C7.29875 4.04175 7.31524 3.9923 7.33287 3.94844C7.55802 3.38837 8.08563 3.0081 8.68812 2.97161C8.73531 2.96875 8.78742 2.96875 8.89172 2.96875H11.1087C11.2129 2.96875 11.265 2.96875 11.3122 2.97161C11.9147 3.0081 12.4423 3.38837 12.6675 3.94844C12.6851 3.9923 12.7016 4.04174 12.7345 4.14062L12.7546 4.20076C12.7684 4.24212 12.7753 4.2629 12.782 4.2815C13.0009 4.88665 13.5684 5.33873 14.2118 5.35504" stroke="#121116" stroke-width="1.25"/>
<path d="M17.5483 7.43732C15.1968 8.96573 14.0211 9.72995 12.7817 10.115C10.97 10.6779 9.0302 10.6779 7.21851 10.115C5.97905 9.72995 4.80334 8.96573 2.4519 7.43732" stroke="#121116" stroke-width="1.25" stroke-linecap="round"/>
<path d="M6.875 9.21875V10.7812" stroke="#121116" stroke-width="1.25" stroke-linecap="round"/>
<path d="M13.125 9.21875V10.7812" stroke="#121116" stroke-width="1.25" stroke-linecap="round"/>
</svg>
