
<svg width="24" height="24" viewBox="0 0 24 24" fill="none" xmlns="http://www.w3.org/2000/svg">
<path d="M13.875 6.375H10.125C8.85387 6.375 7.81124 6.375 6.94608 6.42605C5.40487 6.51698 4.42681 6.76989 3.72335 7.47335C2.625 8.5717 2.625 10.3395 2.625 13.875C2.625 17.4105 2.625 19.1783 3.72335 20.2766C4.8217 21.375 6.58946 21.375 10.125 21.375H13.875C17.4105 21.375 19.1783 21.375 20.2766 20.2766C21.375 19.1783 21.375 17.4105 21.375 13.875C21.375 10.3395 21.375 8.5717 20.2766 7.47335C19.5732 6.76989 18.5951 6.51698 17.054 6.42605C16.1888 6.375 15.1462 6.375 13.875 6.375Z" stroke="#5E5F60" stroke-width="1.25"/>
<path d="M6.94629 6.42605C7.71826 6.40648 8.39929 5.86398 8.66197 5.1378C8.67005 5.11546 8.67834 5.09062 8.6949 5.04091L8.71896 4.96875C8.7585 4.8501 8.77829 4.79076 8.79945 4.73812C9.06962 4.06605 9.70275 3.60972 10.4257 3.56593C10.4824 3.5625 10.5449 3.5625 10.6701 3.5625H13.3304C13.4555 3.5625 13.518 3.5625 13.5746 3.56593C14.2976 3.60972 14.9308 4.06605 15.201 4.73812C15.2221 4.79076 15.2419 4.85009 15.2814 4.96875L15.3055 5.04091C15.322 5.09055 15.3304 5.11548 15.3384 5.1378C15.6011 5.86398 16.2821 6.40648 17.0542 6.42605" stroke="#5E5F60" stroke-width="1.25"/>
<path d="M21.0578 8.9248C18.2361 10.7589 16.8252 11.676 15.3379 12.1381C13.1639 12.8135 10.8361 12.8135 8.66206 12.1381C7.17472 11.676 5.76386 10.7589 2.94214 8.9248" stroke="#5E5F60" stroke-width="1.25" stroke-linecap="round"/>
<path d="M8.25 11.0625V12.9375" stroke="#5E5F60" stroke-width="1.25" stroke-linecap="round"/>
<path d="M15.75 11.0625V12.9375" stroke="#5E5F60" stroke-width="1.25" stroke-linecap="round"/>
</svg>
