<svg width="25" height="24" viewBox="0 0 25 24" fill="none" xmlns="http://www.w3.org/2000/svg">
<path fill-rule="evenodd" clip-rule="evenodd" d="M10.6102 3.25H14.723C16.5608 3.24998 18.0164 3.24997 19.1556 3.40314C20.3281 3.56076 21.277 3.89288 22.0254 4.64124C22.7737 5.38961 23.1059 6.33856 23.2635 7.51098C23.354 8.18385 23.391 8.9671 23.4061 9.87428C23.413 9.91516 23.4166 9.95716 23.4166 10C23.4166 10.0353 23.4142 10.0699 23.4095 10.1039C23.4166 10.6696 23.4166 11.2818 23.4166 11.9436V12.0564C23.4166 13.8942 23.4167 15.3498 23.2635 16.489C23.1059 17.6614 22.7737 18.6104 22.0254 19.3588C21.277 20.1071 20.3281 20.4392 19.1556 20.5969C18.0164 20.75 16.5608 20.75 14.723 20.75H10.6102C8.77245 20.75 7.31682 20.75 6.1776 20.5969C5.00518 20.4392 4.05623 20.1071 3.30787 19.3588C2.55951 18.6104 2.22739 17.6614 2.06976 16.489C1.9166 15.3498 1.91661 13.8942 1.91663 12.0564V11.9436C1.91662 11.2818 1.91662 10.6696 1.92376 10.1039C1.91906 10.0699 1.91663 10.0352 1.91663 10C1.91663 9.95716 1.92022 9.91517 1.92712 9.87429C1.94227 8.96711 1.9793 8.18385 2.06976 7.51098C2.22739 6.33856 2.55951 5.38961 3.30787 4.64124C4.05623 3.89288 5.00518 3.56076 6.1776 3.40314C7.31682 3.24997 8.77245 3.24998 10.6102 3.25ZM3.41861 10.75C3.41671 11.1384 3.41663 11.5541 3.41663 12C3.41663 13.9068 3.41822 15.2615 3.55639 16.2892C3.69165 17.2952 3.94532 17.8749 4.36853 18.2981C4.79174 18.7213 5.37139 18.975 6.37747 19.1102C7.40514 19.2484 8.75981 19.25 10.6666 19.25H14.6666C16.5734 19.25 17.9281 19.2484 18.9558 19.1102C19.9619 18.975 20.5415 18.7213 20.9647 18.2981C21.3879 17.8749 21.6416 17.2952 21.7769 16.2892C21.915 15.2615 21.9166 13.9068 21.9166 12C21.9166 11.5541 21.9165 11.1384 21.9146 10.75H3.41861ZM21.8906 9.25H3.4427C3.46226 8.66327 3.49649 8.15634 3.55639 7.71085C3.69165 6.70476 3.94532 6.12511 4.36853 5.7019C4.79174 5.27869 5.37139 5.02502 6.37748 4.88976C7.40514 4.75159 8.75981 4.75 10.6666 4.75H14.6666C16.5734 4.75 17.9281 4.75159 18.9558 4.88976C19.9619 5.02502 20.5415 5.27869 20.9647 5.7019C21.3879 6.12511 21.6416 6.70476 21.7769 7.71085C21.8368 8.15634 21.871 8.66327 21.8906 9.25ZM5.91663 16C5.91663 15.5858 6.25241 15.25 6.66663 15.25H10.6666C11.0808 15.25 11.4166 15.5858 11.4166 16C11.4166 16.4142 11.0808 16.75 10.6666 16.75H6.66663C6.25241 16.75 5.91663 16.4142 5.91663 16ZM12.4166 16C12.4166 15.5858 12.7524 15.25 13.1666 15.25H14.6666C15.0808 15.25 15.4166 15.5858 15.4166 16C15.4166 16.4142 15.0808 16.75 14.6666 16.75H13.1666C12.7524 16.75 12.4166 16.4142 12.4166 16Z" fill="#6C7278"/>
</svg>
