<svg width="25" height="24" viewBox="0 0 25 24" fill="none" xmlns="http://www.w3.org/2000/svg">
<path d="M14.6434 9.67164C14.84 9.5893 15.0366 9.78926 14.9556 9.98922L13.9012 12.5941C13.7798 12.8941 13.5457 13.1323 13.2508 13.2558L10.6902 14.3284C10.4936 14.4107 10.297 14.2107 10.378 14.0108L11.4324 11.4059C11.5538 11.1059 11.7879 10.8678 12.0828 10.7442L14.6434 9.67164Z" fill="white"/>
<path fill-rule="evenodd" clip-rule="evenodd" d="M15.6004 2.06995C14.8307 1.99999 13.8903 1.99999 12.7004 2H12.6331C11.4432 1.99999 10.5028 1.99999 9.73312 2.06995C8.94254 2.14181 8.28129 2.29074 7.65634 2.61687C7.49445 2.70136 7.33679 2.79396 7.18392 2.89434C6.5938 3.28184 6.13639 3.78993 5.67992 4.45049C5.23554 5.09356 4.76531 5.9221 4.17041 6.97032L4.13672 7.02968C3.54181 8.07789 3.07156 8.90643 2.7463 9.61946C2.41218 10.3519 2.20834 11.0089 2.17351 11.7225C2.16449 11.9074 2.16449 12.0926 2.17351 12.2775C2.20834 12.9911 2.41218 13.6481 2.7463 14.3805C3.07155 15.0935 3.54178 15.9221 4.13667 16.9702L4.17039 17.0297C4.7653 18.0779 5.23554 18.9064 5.67992 19.5495C6.13639 20.2101 6.5938 20.7182 7.18392 21.1057C7.33678 21.206 7.49445 21.2986 7.65634 21.3831C8.28129 21.7093 8.94254 21.8582 9.73312 21.9301C10.5028 22 11.4432 22 12.633 22H12.7004C13.8902 22 14.8307 22 15.6004 21.9301C16.391 21.8582 17.0522 21.7093 17.6772 21.3831C17.839 21.2986 17.9967 21.206 18.1496 21.1057C18.7397 20.7182 19.1971 20.2101 19.6536 19.5495C20.0979 18.9065 20.5682 18.0779 21.1631 17.0297L21.1968 16.9703C21.7917 15.9221 22.2619 15.0936 22.5872 14.3805C22.9213 13.6481 23.1252 12.9911 23.16 12.2775C23.169 12.0926 23.169 11.9074 23.16 11.7225C23.1252 11.0089 22.9213 10.3519 22.5872 9.61946C22.2619 8.90643 21.7917 8.07788 21.1968 7.02966L21.1631 6.97026C20.5682 5.92207 20.0979 5.09355 19.6536 4.45049C19.1971 3.78993 18.7397 3.28184 18.1496 2.89434C17.9967 2.79396 17.839 2.70136 17.6772 2.61687C17.0522 2.29074 16.391 2.14181 15.6004 2.06995ZM16.2824 10.545C16.849 9.14528 15.4731 7.74556 14.0971 8.32191L11.5364 9.39452C10.8878 9.66623 10.3727 10.1902 10.1056 10.8501L9.05117 13.455C8.48461 14.8547 9.86055 16.2545 11.2365 15.6781L13.7972 14.6055C14.4458 14.3338 14.9609 13.8098 15.228 13.1499L16.2824 10.545Z" fill="white"/>
</svg>
