<svg width="20" height="20" viewBox="0 0 20 20" fill="none" xmlns="http://www.w3.org/2000/svg">
<path d="M2.1875 10C2.1875 6.31715 2.1875 4.47573 3.33162 3.33162C4.47573 2.1875 6.31715 2.1875 10 2.1875C13.6828 2.1875 15.5243 2.1875 16.6684 3.33162C17.8125 4.47573 17.8125 6.31715 17.8125 10C17.8125 13.6828 17.8125 15.5243 16.6684 16.6684C15.5243 17.8125 13.6828 17.8125 10 17.8125C6.31715 17.8125 4.47573 17.8125 3.33162 16.6684C2.1875 15.5243 2.1875 13.6828 2.1875 10Z" stroke="#121116" stroke-width="1.25"/>
<path d="M8.53516 7.55859C8.53516 6.74959 9.19102 6.09375 10 6.09375C10.809 6.09375 11.4648 6.74959 11.4648 7.55859C11.4648 8.09566 11.1758 8.56523 10.7448 8.82023C10.3734 9.03992 10 9.3732 10 9.80469V10.7812" stroke="#121116" stroke-width="1.25" stroke-linecap="round"/>
<path d="M9.21875 13.125C9.21875 13.3322 9.30106 13.5309 9.44757 13.6774C9.59409 13.8239 9.7928 13.9062 10 13.9062C10.2072 13.9062 10.4059 13.8239 10.5524 13.6774C10.6989 13.5309 10.7812 13.3322 10.7812 13.125C10.7812 12.9178 10.6989 12.7191 10.5524 12.5726C10.4059 12.4261 10.2072 12.3438 10 12.3438C9.7928 12.3438 9.59409 12.4261 9.44757 12.5726C9.30106 12.7191 9.21875 12.9178 9.21875 13.125Z" fill="#121116"/>
</svg>
