<svg width="20" height="20" viewBox="0 0 20 20" fill="none" xmlns="http://www.w3.org/2000/svg">
<path d="M2.1875 10C2.1875 12.072 3.0106 14.0591 4.47573 15.5243C5.94086 16.9894 7.928 17.8125 10 17.8125C12.072 17.8125 14.0591 16.9894 15.5243 15.5243C16.9894 14.0591 17.8125 12.072 17.8125 10C17.8125 7.928 16.9894 5.94086 15.5243 4.47573C14.0591 3.0106 12.072 2.1875 10 2.1875C7.928 2.1875 5.94086 3.0106 4.47573 4.47573C3.0106 5.94086 2.1875 7.928 2.1875 10Z" stroke="#121116" stroke-width="1.25"/>
<path d="M5.3125 4.3051C5.92206 4.8602 7.17777 6.37747 7.32407 8.00576C7.46081 9.52773 8.46539 10.7645 10 10.7812C10.5898 10.7877 11.1862 10.3616 11.1847 9.77188C11.1842 9.58945 11.1541 9.40297 11.107 9.23148C11.0415 8.99281 11.0357 8.71836 11.1719 8.4375C11.6484 7.45511 12.5855 7.19123 13.328 6.6577C13.6573 6.42108 13.9577 6.17146 14.0902 5.9704C14.456 5.4153 14.8217 4.3051 14.6388 3.75" stroke="#121116" stroke-width="1.25"/>
<path d="M17.8125 10.7812C17.5551 11.5086 17.373 13.418 14.4673 13.4483C14.4673 13.4483 11.8942 13.4483 11.1223 14.903C10.5047 16.0668 10.8649 17.3276 11.1223 17.8125" stroke="#121116" stroke-width="1.25"/>
</svg>
