<svg width="20" height="20" viewBox="0 0 20 20" fill="none" xmlns="http://www.w3.org/2000/svg">
<path d="M15.2727 8.2106V7.66013C15.2727 4.63768 12.912 2.1875 10 2.1875C7.08794 2.1875 4.72724 4.63768 4.72724 7.66013V8.2106C4.72724 8.87125 4.53884 9.51703 4.18578 10.0667L3.32059 11.4137C2.53033 12.644 3.13363 14.3163 4.50809 14.7054C8.1037 15.7232 11.8963 15.7232 15.4919 14.7054C16.8664 14.3163 17.4697 12.644 16.6794 11.4137L15.8142 10.0667C15.4612 9.51703 15.2727 8.87125 15.2727 8.2106Z" stroke="#121116" stroke-width="1.25"/>
<path d="M6.48438 15.4688C6.99612 16.8342 8.37692 17.8125 10 17.8125C11.623 17.8125 13.0039 16.8342 13.5156 15.4688" stroke="#121116" stroke-width="1.25" stroke-linecap="round"/>
</svg>
