<svg width="24" height="24" viewBox="0 0 24 24" fill="none" xmlns="http://www.w3.org/2000/svg">
<path d="M21 16.8289V11.1622C21 10.1186 21 9.59686 20.7169 9.20403C20.4881 8.8867 20.1212 8.71803 19.4667 8.49097C19.3328 10.0972 18.8009 11.7375 17.9655 13.1731C16.9928 14.8447 15.5484 16.3393 13.697 17.1469C12.618 17.6176 11.382 17.6176 10.303 17.1469C8.45164 16.3393 7.00718 14.8447 6.03449 13.1731C5.40086 12.0842 4.9418 10.8775 4.69862 9.65727C4.31607 9.60093 4.0225 9.62984 3.76917 9.77118C3.66809 9.82757 3.57388 9.89547 3.48841 9.97353C3 10.4196 3 11.2491 3 12.908V17.8377C3 18.8813 3 19.403 3.28314 19.7959C3.56627 20.1887 4.06129 20.3537 5.05132 20.6837L5.43488 20.8116L5.43489 20.8116C7.01186 21.3372 7.80035 21.6001 8.60688 21.6016C8.8498 21.6021 9.09242 21.5848 9.33284 21.55C10.131 21.4344 10.8809 21.0595 12.3806 20.3096C13.5299 19.735 14.1046 19.4477 14.715 19.3144C14.9292 19.2676 15.1463 19.2349 15.3648 19.2166C15.9875 19.1645 16.6157 19.2692 17.8721 19.4786C19.1455 19.6909 19.7821 19.797 20.247 19.53C20.4048 19.4394 20.5449 19.3207 20.6603 19.1799C21 18.7653 21 18.1198 21 16.8289Z" fill="white"/>
<path fill-rule="evenodd" clip-rule="evenodd" d="M12 2C8.68629 2 6 4.55211 6 7.70031C6 10.8238 7.91499 14.4687 10.9028 15.7721C11.5993 16.076 12.4007 16.076 13.0972 15.7721C16.085 14.4687 18 10.8238 18 7.70031C18 4.55211 15.3137 2 12 2ZM12 10C13.1046 10 14 9.10457 14 8C14 6.89543 13.1046 6 12 6C10.8954 6 10 6.89543 10 8C10 9.10457 10.8954 10 12 10Z" fill="white"/>
</svg>
