<svg width="25" height="24" viewBox="0 0 25 24" fill="none" xmlns="http://www.w3.org/2000/svg">
<path d="M16.3334 9H15.5834C15.5834 10.7949 14.1283 12.25 12.3334 12.25V13V13.75C14.9567 13.75 17.0834 11.6234 17.0834 9H16.3334ZM12.3334 13V12.25C10.5384 12.25 9.08337 10.7949 9.08337 9H8.33337H7.58337C7.58337 11.6234 9.71002 13.75 12.3334 13.75V13ZM8.33337 9H9.08337C9.08337 7.20507 10.5384 5.75 12.3334 5.75V5V4.25C9.71002 4.25 7.58337 6.37665 7.58337 9H8.33337ZM12.3334 5V5.75C14.1283 5.75 15.5834 7.20507 15.5834 9H16.3334H17.0834C17.0834 6.37665 14.9567 4.25 12.3334 4.25V5ZM9.33337 16V16.75H15.3334V16V15.25H9.33337V16ZM2.33337 12H3.08337C3.08337 6.89137 7.22474 2.75 12.3334 2.75V2V1.25C6.39631 1.25 1.58337 6.06294 1.58337 12H2.33337ZM12.3334 2V2.75C17.442 2.75 21.5834 6.89137 21.5834 12H22.3334H23.0834C23.0834 6.06294 18.2704 1.25 12.3334 1.25V2ZM22.3334 12H21.5834C21.5834 14.6233 20.4923 16.9905 18.7373 18.6748L19.2566 19.2159L19.7759 19.7571C21.8135 17.8016 23.0834 15.0485 23.0834 12H22.3334ZM19.2566 19.2159L18.7373 18.6748C17.0745 20.2705 14.8191 21.25 12.3334 21.25V22V22.75C15.2216 22.75 17.845 21.61 19.7759 19.7571L19.2566 19.2159ZM15.3334 16V16.75C16.9094 16.75 18.2249 17.8726 18.5209 19.3621L19.2566 19.2159L19.9922 19.0697C19.5593 16.8918 17.6389 15.25 15.3334 15.25V16ZM12.3334 22V21.25C9.84762 21.25 7.59222 20.2705 5.9295 18.6748L5.41019 19.2159L4.89088 19.7571C6.8217 21.61 9.4452 22.75 12.3334 22.75V22ZM5.41019 19.2159L5.9295 18.6748C4.17441 16.9905 3.08337 14.6233 3.08337 12H2.33337H1.58337C1.58337 15.0485 2.85327 17.8016 4.89088 19.7571L5.41019 19.2159ZM9.33337 16V15.25C7.02782 15.25 5.10741 16.8918 4.67457 19.0697L5.41019 19.2159L6.1458 19.3621C6.44183 17.8726 7.75734 16.75 9.33337 16.75V16Z" fill="#6C7278"/>
</svg>
