<svg width="24" height="24" viewBox="0 0 24 24" fill="none" xmlns="http://www.w3.org/2000/svg">
<path d="M16 9H15.25C15.25 10.7949 13.7949 12.25 12 12.25V13V13.75C14.6234 13.75 16.75 11.6234 16.75 9H16ZM12 13V12.25C10.2051 12.25 8.75 10.7949 8.75 9H8H7.25C7.25 11.6234 9.37665 13.75 12 13.75V13ZM8 9H8.75C8.75 7.20507 10.2051 5.75 12 5.75V5V4.25C9.37665 4.25 7.25 6.37665 7.25 9H8ZM12 5V5.75C13.7949 5.75 15.25 7.20507 15.25 9H16H16.75C16.75 6.37665 14.6234 4.25 12 4.25V5ZM9 16V16.75H15V16V15.25H9V16ZM2 12H2.75C2.75 6.89137 6.89137 2.75 12 2.75V2V1.25C6.06294 1.25 1.25 6.06294 1.25 12H2ZM12 2V2.75C17.1086 2.75 21.25 6.89137 21.25 12H22H22.75C22.75 6.06294 17.9371 1.25 12 1.25V2ZM22 12H21.25C21.25 14.6233 20.159 16.9905 18.4039 18.6748L18.9232 19.2159L19.4425 19.7571C21.4801 17.8016 22.75 15.0485 22.75 12H22ZM18.9232 19.2159L18.4039 18.6748C16.7412 20.2705 14.4858 21.25 12 21.25V22V22.75C14.8882 22.75 17.5117 21.61 19.4425 19.7571L18.9232 19.2159ZM15 16V16.75C16.576 16.75 17.8915 17.8726 18.1876 19.3621L18.9232 19.2159L19.6588 19.0697C19.226 16.8918 17.3055 15.25 15 15.25V16ZM12 22V21.25C9.51425 21.25 7.25884 20.2705 5.59612 18.6748L5.07681 19.2159L4.55751 19.7571C6.48833 21.61 9.11182 22.75 12 22.75V22ZM5.07681 19.2159L5.59612 18.6748C3.84103 16.9905 2.75 14.6233 2.75 12H2H1.25C1.25 15.0485 2.51989 17.8016 4.55751 19.7571L5.07681 19.2159ZM9 16V15.25C6.69445 15.25 4.77403 16.8918 4.3412 19.0697L5.07681 19.2159L5.81243 19.3621C6.10846 17.8726 7.42396 16.75 9 16.75V16Z" fill="#5E5F60"/>
</svg>
