<svg width="18" height="18" viewBox="0 0 18 18" fill="none" xmlns="http://www.w3.org/2000/svg">
<path fill-rule="evenodd" clip-rule="evenodd" d="M12.3937 1.5H12.4449C13.1077 1.49999 13.6423 1.49999 14.0726 1.5409C14.5164 1.5831 14.903 1.67247 15.2507 1.88554C15.6028 2.10126 15.8987 2.39724 16.1145 2.74928C16.3275 3.09697 16.4169 3.48361 16.4591 3.9274C16.5 4.35772 16.5 4.89228 16.5 5.55512V5.60638C16.5 6.0419 16.5 6.40536 16.4719 6.70057C16.4426 7.00919 16.3789 7.29681 16.2173 7.56061C16.0591 7.81877 15.842 8.03582 15.5839 8.19402C15.3201 8.35568 15.0324 8.41935 14.7238 8.44869C14.4286 8.47676 14.0651 8.47675 13.6296 8.47674L12.8009 8.47675C12.1741 8.47677 11.6514 8.47678 11.2364 8.42099C10.7984 8.36211 10.403 8.23257 10.0852 7.9148C9.76743 7.59703 9.6379 7.20159 9.57901 6.76359C9.52322 6.34863 9.52323 5.82592 9.52326 5.19907L9.52326 4.37044C9.52325 3.93491 9.52324 3.57139 9.55131 3.27617C9.58065 2.96755 9.64432 2.67994 9.80598 2.41614C9.96418 2.15798 10.1812 1.94093 10.4394 1.78273C10.7032 1.62107 10.9908 1.5574 11.2994 1.52805C11.5947 1.49998 11.9582 1.49999 12.3937 1.5ZM13.0116 5.86047C12.652 5.86047 12.4722 5.86047 12.3453 5.77039C12.3005 5.73861 12.2614 5.69949 12.2296 5.6547C12.1395 5.52775 12.1395 5.34796 12.1395 4.98838C12.1395 4.6288 12.1395 4.44899 12.2296 4.32204C12.2614 4.27725 12.3005 4.23814 12.3453 4.20635C12.4722 4.11628 12.652 4.11628 13.0116 4.11628C13.3712 4.11628 13.551 4.11628 13.678 4.20635C13.7228 4.23814 13.7619 4.27725 13.7936 4.32204C13.8837 4.44899 13.8837 4.62879 13.8837 4.98837C13.8837 5.34796 13.8837 5.52775 13.7936 5.6547C13.7619 5.69949 13.7228 5.73861 13.678 5.77039C13.551 5.86047 13.3712 5.86047 13.0116 5.86047Z" fill="#315230"/>
<path fill-rule="evenodd" clip-rule="evenodd" d="M7.56061 1.78273C7.29681 1.62107 7.00919 1.5574 6.70057 1.52805C6.40535 1.49998 6.04187 1.49999 5.60632 1.5H5.55513C4.8923 1.49999 4.35772 1.49999 3.9274 1.5409C3.48361 1.5831 3.09697 1.67247 2.74928 1.88554C2.39724 2.10126 2.10126 2.39724 1.88554 2.74928C1.67247 3.09697 1.5831 3.48361 1.5409 3.9274C1.49999 4.35772 1.49999 4.89227 1.5 5.55509V5.60629C1.49999 6.04184 1.49998 6.40535 1.52805 6.70057C1.5574 7.00919 1.62107 7.29681 1.78273 7.56061C1.94093 7.81877 2.15798 8.03582 2.41614 8.19402C2.67994 8.35568 2.96755 8.41935 3.27617 8.44869C3.57138 8.47676 3.93482 8.47675 4.37033 8.47674L5.19907 8.47675C5.8259 8.47677 6.34863 8.47678 6.76359 8.42099C7.20159 8.36211 7.59703 8.23257 7.9148 7.9148C8.23257 7.59703 8.36211 7.20159 8.42099 6.76359C8.47678 6.34863 8.47677 5.82593 8.47675 5.19909L8.47674 4.37044C8.47675 3.93494 8.47676 3.57138 8.44869 3.27617C8.41935 2.96755 8.35568 2.67994 8.19402 2.41614C8.03582 2.15798 7.81877 1.94093 7.56061 1.78273ZM4.32204 5.77039C4.44899 5.86047 4.62879 5.86047 4.98837 5.86047C5.34796 5.86047 5.52775 5.86047 5.6547 5.77039C5.69949 5.73861 5.73861 5.69949 5.77039 5.6547C5.86047 5.52775 5.86047 5.34796 5.86047 4.98837C5.86047 4.62879 5.86047 4.44899 5.77039 4.32204C5.73861 4.27725 5.69949 4.23814 5.6547 4.20635C5.52775 4.11628 5.34796 4.11628 4.98837 4.11628C4.62879 4.11628 4.44899 4.11628 4.32204 4.20635C4.27725 4.23814 4.23814 4.27725 4.20635 4.32204C4.11628 4.44899 4.11628 4.62879 4.11628 4.98837C4.11628 5.34796 4.11628 5.52775 4.20635 5.6547C4.23814 5.69949 4.27725 5.73861 4.32204 5.77039Z" fill="#315230"/>
<path fill-rule="evenodd" clip-rule="evenodd" d="M6.76359 9.57901C7.20159 9.6379 7.59703 9.76743 7.9148 10.0852C8.23257 10.403 8.36211 10.7984 8.42099 11.2364C8.47678 11.6514 8.47677 12.1741 8.47675 12.8009L8.47674 13.6296C8.47675 14.0651 8.47676 14.4286 8.44869 14.7238C8.41935 15.0324 8.35568 15.3201 8.19402 15.5839C8.03582 15.842 7.81877 16.0591 7.56061 16.2173C7.29681 16.3789 7.00919 16.4426 6.70057 16.4719C6.40536 16.5 6.04183 16.5 5.6063 16.5H5.55512C4.89228 16.5 4.35772 16.5 3.9274 16.4591C3.48361 16.4169 3.09697 16.3275 2.74928 16.1145C2.39724 15.8987 2.10126 15.6028 1.88554 15.2507C1.67247 14.903 1.5831 14.5164 1.5409 14.0726C1.49999 13.6423 1.49999 13.1077 1.5 12.4449V12.3937C1.49999 11.9581 1.49998 11.5947 1.52805 11.2994C1.5574 10.9908 1.62107 10.7032 1.78273 10.4394C1.94093 10.1812 2.15798 9.96418 2.41614 9.80598C2.67994 9.64432 2.96755 9.58065 3.27617 9.55131C3.57138 9.52324 3.93486 9.52325 4.37038 9.52326L5.19907 9.52326C5.82592 9.52323 6.34863 9.52322 6.76359 9.57901ZM4.98837 13.8837C4.62879 13.8837 4.44899 13.8837 4.32204 13.7936C4.27725 13.7619 4.23814 13.7228 4.20635 13.678C4.11628 13.551 4.11628 13.3712 4.11628 13.0116C4.11628 12.652 4.11628 12.4722 4.20635 12.3453C4.23814 12.3005 4.27725 12.2614 4.32204 12.2296C4.44899 12.1395 4.62878 12.1395 4.98836 12.1395C5.34794 12.1395 5.52775 12.1395 5.6547 12.2296C5.69949 12.2614 5.73861 12.3005 5.77039 12.3453C5.86047 12.4722 5.86047 12.652 5.86047 13.0116C5.86047 13.3712 5.86047 13.551 5.77039 13.678C5.73861 13.7228 5.69949 13.7619 5.6547 13.7936C5.52775 13.8837 5.34796 13.8837 4.98837 13.8837Z" fill="#315230"/>
<path d="M9.52326 12.4616V12.4884H10.5698C10.5698 11.9876 10.5704 11.6513 10.5965 11.395C10.6217 11.1474 10.6662 11.033 10.7167 10.9574C10.7804 10.8621 10.8621 10.7804 10.9574 10.7167C11.033 10.6662 11.1474 10.6217 11.395 10.5965C11.6513 10.5704 11.9876 10.5698 12.4884 10.5698H13.8837V9.52326H12.4616C11.9945 9.52324 11.6047 9.52323 11.2891 9.55534C10.9588 9.58894 10.6522 9.662 10.3759 9.8466C10.1664 9.98658 9.98658 10.1664 9.8466 10.3759C9.662 10.6522 9.58894 10.9588 9.55534 11.2891C9.52323 11.6047 9.52324 11.9945 9.52326 12.4616Z" fill="#315230"/>
<path d="M16.5 13.9013V13.8837H15.4535C15.4535 14.216 15.4532 14.4389 15.4414 14.6116C15.43 14.7795 15.4094 14.8613 15.3871 14.9151C15.2986 15.1288 15.1288 15.2986 14.9151 15.3871C14.8613 15.4094 14.7795 15.43 14.6116 15.4414C14.4389 15.4532 14.216 15.4535 13.8837 15.4535H12.4884V16.5H13.9013C14.2114 16.5 14.4703 16.5 14.6828 16.4855C14.904 16.4704 15.113 16.4379 15.3156 16.354C15.7857 16.1592 16.1592 15.7857 16.354 15.3156C16.4379 15.113 16.4704 14.904 16.4855 14.6828C16.5 14.4703 16.5 14.2114 16.5 13.9013Z" fill="#315230"/>
<path d="M10.5698 15.9767C10.5698 16.2657 10.3355 16.5 10.0465 16.5C9.75753 16.5 9.52326 16.2657 9.52326 15.9767V13.8837H10.5698V15.9767Z" fill="#315230"/>
<path d="M15.9767 9.52326C15.6878 9.52326 15.4535 9.75752 15.4535 10.0465V12.4884H16.5V10.0465C16.5 9.75752 16.2657 9.52326 15.9767 9.52326Z" fill="#315230"/>
<path d="M12.0571 12.463C12 12.6008 12 12.7755 12 13.125C12 13.4745 12 13.6492 12.0571 13.787C12.1332 13.9708 12.2792 14.1168 12.463 14.1929C12.6008 14.25 12.7755 14.25 13.125 14.25C13.4745 14.25 13.6492 14.25 13.787 14.1929C13.9708 14.1168 14.1168 13.9708 14.1929 13.787C14.25 13.6492 14.25 13.4745 14.25 13.125C14.25 12.7755 14.25 12.6008 14.1929 12.463C14.1168 12.2792 13.9708 12.1332 13.787 12.0571C13.6492 12 13.4745 12 13.125 12C12.7755 12 12.6008 12 12.463 12.0571C12.2792 12.1332 12.1332 12.2792 12.0571 12.463Z" fill="#315230"/>
</svg>
