<svg width="40" height="40" viewBox="0 0 40 40" fill="none" xmlns="http://www.w3.org/2000/svg">
<rect width="40" height="40" rx="20" fill="#EAF2FF"/>
<path opacity="0.5" d="M11.4645 28.5355C12.9289 30 15.286 30 20 30C24.714 30 27.0711 30 28.5355 28.5355C30 27.0711 30 24.714 30 20C30 15.286 30 12.9289 28.5355 11.4645C27.0711 10 24.714 10 20 10C15.286 10 12.9289 10 11.4645 11.4645C10 12.9289 10 15.286 10 20C10 24.714 10 27.0711 11.4645 28.5355Z" fill="#315230"/>
<path d="M17.5 16.75C15.7051 16.75 14.25 18.2051 14.25 20C14.25 21.7949 15.7051 23.25 17.5 23.25C19.2949 23.25 20.75 21.7949 20.75 20C20.75 19.5858 21.0858 19.25 21.5 19.25C21.9142 19.25 22.25 19.5858 22.25 20C22.25 22.6234 20.1234 24.75 17.5 24.75C14.8766 24.75 12.75 22.6234 12.75 20C12.75 17.3766 14.8766 15.25 17.5 15.25C17.9142 15.25 18.25 15.5858 18.25 16C18.25 16.4142 17.9142 16.75 17.5 16.75Z" fill="#315230"/>
<path d="M25.75 20C25.75 21.7949 24.2949 23.25 22.5 23.25C22.0858 23.25 21.75 23.5858 21.75 24C21.75 24.4142 22.0858 24.75 22.5 24.75C25.1234 24.75 27.25 22.6234 27.25 20C27.25 17.3766 25.1234 15.25 22.5 15.25C19.8766 15.25 17.75 17.3766 17.75 20C17.75 20.4142 18.0858 20.75 18.5 20.75C18.9142 20.75 19.25 20.4142 19.25 20C19.25 18.2051 20.7051 16.75 22.5 16.75C24.2949 16.75 25.75 18.2051 25.75 20Z" fill="#315230"/>
</svg>
