<svg width="20" height="20" viewBox="0 0 20 20" fill="none" xmlns="http://www.w3.org/2000/svg">
<path d="M2.1875 10C2.1875 12.072 3.0106 14.0591 4.47573 15.5243C5.94086 16.9894 7.928 17.8125 10 17.8125C12.072 17.8125 14.0591 16.9894 15.5243 15.5243C16.9894 14.0591 17.8125 12.072 17.8125 10C17.8125 7.928 16.9894 5.94086 15.5243 4.47573C14.0591 3.0106 12.072 2.1875 10 2.1875C7.928 2.1875 5.94086 3.0106 4.47573 4.47573C3.0106 5.94086 2.1875 7.928 2.1875 10Z" stroke="#121116" stroke-width="1.25"/>
<path d="M10 13.9062V9.21875" stroke="#121116" stroke-width="1.25" stroke-linecap="round"/>
<path d="M9.21875 6.875C9.21875 6.6678 9.30106 6.46909 9.44757 6.32257C9.59409 6.17606 9.7928 6.09375 10 6.09375C10.2072 6.09375 10.4059 6.17606 10.5524 6.32257C10.6989 6.46909 10.7812 6.6678 10.7812 6.875C10.7812 7.0822 10.6989 7.28091 10.5524 7.42743C10.4059 7.57394 10.2072 7.65625 10 7.65625C9.7928 7.65625 9.59409 7.57394 9.44757 7.42743C9.30106 7.28091 9.21875 7.0822 9.21875 6.875Z" fill="#121116"/>
</svg>
