<svg width="20" height="20" viewBox="0 0 20 20" fill="none" xmlns="http://www.w3.org/2000/svg">
<path d="M2.1875 10C2.1875 12.072 3.0106 14.0591 4.47573 15.5243C5.94086 16.9894 7.928 17.8125 10 17.8125C12.072 17.8125 14.0591 16.9894 15.5243 15.5243C16.9894 14.0591 17.8125 12.072 17.8125 10C17.8125 7.928 16.9894 5.94086 15.5243 4.47573C14.0591 3.0106 12.072 2.1875 10 2.1875C7.928 2.1875 5.94086 3.0106 4.47573 4.47573C3.0106 5.94086 2.1875 7.928 2.1875 10Z" stroke="#121116" stroke-width="1.25"/>
<path d="M6.875 10C6.875 10.8288 7.20424 11.6237 7.79029 12.2097C8.37634 12.7958 9.1712 13.125 10 13.125C10.8288 13.125 11.6237 12.7958 12.2097 12.2097C12.7958 11.6237 13.125 10.8288 13.125 10C13.125 9.1712 12.7958 8.37634 12.2097 7.79029C11.6237 7.20424 10.8288 6.875 10 6.875C9.1712 6.875 8.37634 7.20424 7.79029 7.79029C7.20424 8.37634 6.875 9.1712 6.875 10Z" stroke="#121116" stroke-width="1.25"/>
<path d="M12.3438 7.65625L15.4688 4.53125" stroke="#121116" stroke-width="1.25"/>
<path d="M4.53125 15.4688L7.65625 12.3438" stroke="#121116" stroke-width="1.25"/>
<path d="M7.65625 7.65625L4.53125 4.53125" stroke="#121116" stroke-width="1.25"/>
<path d="M15.4688 15.4688L12.3438 12.3438" stroke="#121116" stroke-width="1.25"/>
</svg>
