<svg width="86" height="16" viewBox="0 0 86 16" fill="none" xmlns="http://www.w3.org/2000/svg">
<path d="M12.3872 0.116211C12.2839 0.188142 12.1126 0.331592 12.0073 0.43457C11.9017 0.537791 11.7373 0.721003 11.6421 0.841797C11.5468 0.962768 11.4197 1.1369 11.3589 1.22754C11.298 1.31866 11.1779 1.51725 11.0923 1.66895C11.0063 1.82075 10.8743 2.07966 10.7993 2.24414C10.7244 2.40853 10.6292 2.62607 10.5874 2.72754C10.5459 2.82904 10.4726 3.02109 10.4243 3.1543C10.376 3.28759 10.301 3.48043 10.2583 3.58203C10.2157 3.68387 10.1418 3.85006 10.0942 3.95117C10.0465 4.05263 9.95325 4.22605 9.88721 4.33691C9.82104 4.44767 9.71965 4.60591 9.66162 4.6875C9.60369 4.76938 9.49305 4.90825 9.41553 4.99609C9.33778 5.08388 9.21467 5.21046 9.14209 5.27734C9.06938 5.34432 8.94154 5.45235 8.85791 5.51758C8.77409 5.58294 8.61735 5.69666 8.50928 5.76953C8.40089 5.84257 8.17668 5.98139 8.01123 6.07812C7.84559 6.17496 7.59917 6.3126 7.46436 6.38477C7.32933 6.45703 7.05285 6.59592 6.8501 6.69238C6.6474 6.78904 6.36036 6.92026 6.2124 6.98438C6.06436 7.04851 5.77008 7.17184 5.55908 7.25781C5.348 7.34382 5.06441 7.4558 4.9292 7.50684L4.68311 7.59961C4.59096 7.81302 4.51798 7.97132 4.46143 8.08887C4.40583 8.20477 4.36627 8.3033 4.37256 8.30957C4.37999 8.31349 4.62197 8.31451 4.90967 8.31152C5.19753 8.30874 5.60596 8.30053 5.81689 8.29297C6.02759 8.28521 6.36362 8.26962 6.56299 8.25879C6.76225 8.24775 7.10875 8.2241 7.33252 8.20605C7.55619 8.18822 7.81546 8.16473 7.90869 8.1543C8.00122 8.14372 8.08564 8.13909 8.09619 8.14355C8.1069 8.14424 8.40102 8.09442 8.75928 8.03711L8.56104 8.49023L7.44482 11.166C7.41833 11.1948 7.39518 11.2239 7.37549 11.2432C7.32854 11.2891 7.24598 11.3637 7.19189 11.4082C7.13759 11.4528 7.03531 11.5296 6.96533 11.5791C6.89493 11.6288 6.74937 11.7226 6.64209 11.7881C6.53466 11.8536 6.37527 11.9473 6.2876 11.9961C6.19977 12.0449 6.0191 12.1382 5.88721 12.2031C5.75524 12.2682 5.56842 12.3565 5.47217 12.3994C5.37574 12.4424 5.18478 12.5255 5.04736 12.583C4.90981 12.6405 4.7244 12.715 4.63623 12.749L4.47607 12.8115C4.41819 12.9592 4.37212 13.0691 4.33643 13.1504C4.30118 13.231 4.27614 13.2991 4.28076 13.3027C4.28569 13.3056 4.44447 13.3092 4.6333 13.3105C4.8222 13.312 5.09059 13.3113 5.229 13.3086C5.36709 13.3057 5.58662 13.2991 5.71729 13.2939C5.84786 13.2886 6.07538 13.2755 6.22217 13.2656C6.35589 13.2567 6.50925 13.2448 6.58154 13.2383L5.96631 14.7158C5.88377 14.9134 5.69023 15.042 5.47607 15.042H2.0415C1.66195 15.0419 1.40497 14.6546 1.55225 14.3047L3.86768 8.80469L5.4624 5.0625C5.61115 4.71255 5.35439 4.3245 4.97412 4.32422H0.531738C0.151656 4.3242 -0.10565 3.93597 0.0424805 3.58594L1.42334 0.324219C1.50645 0.127829 1.69935 0 1.9126 0H12.5649C12.5117 0.0345673 12.4455 0.0756291 12.3872 0.116211ZM17.3511 0C17.7265 0 17.9833 0.378899 17.8442 0.727539L16.73 3.51855C16.7155 3.55471 16.6976 3.58879 16.6763 3.62012L12.0913 14.7139C12.0092 14.9123 11.8158 15.0419 11.6011 15.042H8.11377C7.73435 15.042 7.47769 14.6555 7.62451 14.3057L10.3677 7.76758C11.2611 7.58556 13.9369 7.02609 15.2378 6.5791L15.6167 5.77344C15.5614 5.76192 15.2917 5.72115 15.2339 5.71387C15.1755 5.70646 14.9635 5.66917 14.7622 5.63086C14.5603 5.59223 14.2721 5.52646 14.1226 5.48438C13.973 5.44228 13.7686 5.37731 13.6685 5.34082C13.5683 5.30413 13.4118 5.23947 13.3208 5.19727C13.2296 5.15508 13.0931 5.08207 13.0181 5.03516C12.9433 4.98818 12.832 4.90448 12.771 4.84863C12.7099 4.79286 12.6278 4.69652 12.5884 4.63477C12.5345 4.55028 12.5101 4.49141 12.4917 4.39746C12.4784 4.3289 12.474 4.23107 12.4819 4.18066C12.4899 4.13026 12.5271 4.0121 12.5649 3.91797L13.0991 2.59277C13.3545 1.95855 13.6694 1.16868 13.7993 0.837891C13.9336 0.496065 14.0466 0.173737 14.062 0.0888672C14.0676 0.0580915 14.0694 0.0279061 14.0718 0H17.3511Z" fill="white"/>
<path d="M23.8624 4.93001H21.3256L21.6427 3.43515H28.3923L28.0752 4.93001H25.6517L24.2701 11.521H22.4808L23.8624 4.93001ZM27.4583 5.66612H28.9872L28.7493 6.71932L28.772 6.74197C28.9532 6.33428 29.225 6.02851 29.5874 5.82467C29.9573 5.61327 30.3575 5.50757 30.7878 5.50757C30.9539 5.50757 31.12 5.5189 31.2861 5.54155L30.9577 7.10436C30.8444 7.08171 30.7312 7.05906 30.6179 7.03641C30.5047 7.01376 30.3914 7.00244 30.2782 7.00244C29.9686 7.00244 29.7044 7.05529 29.4855 7.16098C29.2741 7.26668 29.0929 7.41013 28.9419 7.59132C28.7984 7.77252 28.6814 7.98014 28.5908 8.21418C28.5078 8.44067 28.4398 8.67849 28.387 8.92764L27.8434 11.521H26.2466L27.4583 5.66612ZM31.2257 7.4441C31.2786 7.07416 31.3918 6.76839 31.5655 6.5268C31.7391 6.27766 31.9505 6.07759 32.1997 5.92659C32.4488 5.77559 32.7282 5.6699 33.0377 5.6095C33.3472 5.54155 33.6681 5.50757 34.0003 5.50757C34.2645 5.50757 34.5401 5.52645 34.827 5.5642C35.1139 5.60195 35.3781 5.67745 35.6197 5.79069C35.8613 5.89639 36.0576 6.05116 36.2086 6.25501C36.3672 6.4513 36.4427 6.71554 36.4351 7.04774C36.4351 7.32708 36.3936 7.65549 36.3105 8.03299L35.7896 10.3885C35.7594 10.4942 35.7368 10.6263 35.7217 10.7849C35.7141 10.9359 35.7103 11.068 35.7103 11.1813C35.7103 11.2794 35.7292 11.3926 35.767 11.521H34.1588V10.9434C33.9399 11.1926 33.6719 11.3775 33.3548 11.4983C33.0377 11.6116 32.7093 11.6682 32.3695 11.6682C32.0524 11.6682 31.7731 11.6267 31.5315 11.5436C31.2975 11.4606 31.1012 11.3511 30.9426 11.2152C30.7841 11.0718 30.6671 10.9095 30.5916 10.7283C30.5161 10.5395 30.4783 10.3432 30.4783 10.1394C30.4783 9.57315 30.6708 9.12016 31.0559 8.78042C31.4485 8.44067 31.9996 8.22928 32.7093 8.14623C33.0868 8.10093 33.4152 8.06696 33.6945 8.04431C33.9739 8.02166 34.2041 7.98769 34.3853 7.94239C34.5741 7.88954 34.7138 7.81782 34.8044 7.72722C34.8949 7.62907 34.9402 7.48562 34.9402 7.29688C34.9402 7.14588 34.9063 7.02509 34.8383 6.93449C34.7704 6.84389 34.6836 6.77217 34.5779 6.71932C34.4797 6.66647 34.3702 6.6325 34.2494 6.6174C34.1362 6.59475 34.0267 6.58342 33.921 6.58342C33.6341 6.58342 33.3774 6.65515 33.1509 6.79859C32.9244 6.93449 32.7848 7.14966 32.7319 7.4441H31.2257ZM34.6232 8.71247C34.4193 8.83326 34.2004 8.90876 33.9663 8.93896C33.7323 8.96161 33.4982 8.98049 33.2642 8.99559C33.1132 9.01069 32.966 9.03711 32.8225 9.07486C32.6791 9.10506 32.5507 9.15413 32.4375 9.22208C32.3318 9.29003 32.245 9.3844 32.177 9.5052C32.1091 9.61844 32.0751 9.76567 32.0751 9.94686C32.0751 10.1658 32.1619 10.3319 32.3356 10.4451C32.5168 10.5508 32.7244 10.6037 32.9584 10.6037C33.2076 10.6037 33.4152 10.5659 33.5813 10.4904C33.7549 10.4074 33.8984 10.3055 34.0116 10.1847C34.1324 10.0563 34.2268 9.91289 34.2947 9.75434C34.3627 9.5958 34.4193 9.43725 34.4646 9.2787L34.6232 8.71247ZM39.7671 11.521H37.9324L37.1624 5.66612H38.8158L39.1782 9.83361H39.2008L41.2732 5.66612H42.9719L39.7671 11.521ZM46.9872 7.96504C46.9872 7.81404 46.9721 7.66682 46.9419 7.52337C46.9192 7.37238 46.8702 7.23648 46.7947 7.11568C46.7192 6.99489 46.6097 6.90051 46.4662 6.83257C46.3228 6.75707 46.134 6.71932 45.9 6.71932C45.6735 6.71932 45.4734 6.75329 45.2998 6.82124C45.1261 6.88919 44.9751 6.97979 44.8468 7.09303C44.7185 7.20628 44.609 7.3384 44.5184 7.4894C44.4353 7.6404 44.3636 7.79894 44.3032 7.96504H46.9872ZM44.1333 8.98426C44.1258 9.02201 44.122 9.05598 44.122 9.08618C44.122 9.11638 44.122 9.14658 44.122 9.17678V9.324C44.122 9.66374 44.2277 9.93931 44.4391 10.1507C44.6505 10.3621 44.9751 10.4678 45.413 10.4678C45.5716 10.4678 45.7113 10.4451 45.8321 10.3998C45.9604 10.347 46.0699 10.2828 46.1605 10.2073C46.2586 10.1318 46.3417 10.045 46.4096 9.94686C46.4851 9.84871 46.5531 9.75434 46.6135 9.66374H48.2216C48.0932 9.99594 47.9422 10.2866 47.7686 10.5357C47.5949 10.7849 47.3873 10.9963 47.1457 11.1699C46.9041 11.336 46.621 11.4606 46.2964 11.5436C45.9793 11.6267 45.6093 11.6682 45.1865 11.6682C44.794 11.6682 44.4353 11.6154 44.1107 11.5097C43.7936 11.404 43.5218 11.2454 43.2953 11.034C43.0688 10.8151 42.8914 10.5471 42.7631 10.23C42.6423 9.91289 42.5819 9.54295 42.5819 9.12016C42.5819 8.65207 42.6574 8.20286 42.8084 7.77252C42.9594 7.33463 43.1707 6.94959 43.4425 6.6174C43.7219 6.27766 44.0616 6.00964 44.4618 5.81334C44.8619 5.6095 45.3111 5.50757 45.8094 5.50757C46.2171 5.50757 46.587 5.56042 46.9192 5.66612C47.259 5.77182 47.5459 5.93414 47.7799 6.15308C48.0215 6.36448 48.2065 6.6325 48.3348 6.95714C48.4707 7.27423 48.5387 7.64417 48.5387 8.06696C48.5387 8.35385 48.5085 8.65962 48.4481 8.98426H44.1333ZM50.3304 3.43515H51.9385L50.2172 11.521H48.6204L50.3304 3.43515ZM56.6056 4.76014H54.9861L55.2806 3.43515H56.9L56.6056 4.76014ZM54.8049 5.66612H56.4244L55.1787 11.521H53.5705L54.8049 5.66612ZM57.4865 5.66612H59.0267L58.8455 6.4815H58.8681C59.3891 5.83222 60.0723 5.50757 60.9179 5.50757C62.0579 5.50757 62.6279 6.03229 62.6279 7.08171C62.6279 7.14211 62.6204 7.22138 62.6053 7.31953C62.5902 7.41013 62.5713 7.5045 62.5487 7.60265C62.5336 7.70079 62.5147 7.79517 62.492 7.88576C62.4769 7.96881 62.4656 8.03676 62.4581 8.08961L61.7333 11.521H60.1252L60.8386 8.08961C60.8537 7.99901 60.8726 7.87821 60.8952 7.72722C60.9254 7.57622 60.9405 7.4592 60.9405 7.37615C60.9405 7.20251 60.8575 7.05906 60.6914 6.94581C60.5329 6.83257 60.3592 6.77594 60.1705 6.77594C59.9289 6.77594 59.7137 6.82502 59.525 6.92316C59.3438 7.01376 59.1852 7.13456 59.0493 7.28555C58.921 7.43655 58.8115 7.6102 58.7209 7.80649C58.6379 8.00279 58.5737 8.20286 58.5284 8.4067L57.8715 11.521H56.2748L57.4865 5.66612ZM66.0404 11.521H64.2058L63.4357 5.66612H65.0891L65.4515 9.83361H65.4741L67.5466 5.66612H69.2453L66.0404 11.521ZM73.2605 7.96504C73.2605 7.81404 73.2454 7.66682 73.2152 7.52337C73.1926 7.37238 73.1435 7.23648 73.068 7.11568C72.9925 6.99489 72.883 6.90051 72.7396 6.83257C72.5961 6.75707 72.4074 6.71932 72.1733 6.71932C71.9468 6.71932 71.7468 6.75329 71.5731 6.82124C71.3995 6.88919 71.2485 6.97979 71.1201 7.09303C70.9918 7.20628 70.8823 7.3384 70.7917 7.4894C70.7087 7.6404 70.6369 7.79894 70.5765 7.96504H73.2605ZM70.4067 8.98426C70.3991 9.02201 70.3953 9.05598 70.3953 9.08618C70.3953 9.11638 70.3953 9.14658 70.3953 9.17678V9.324C70.3953 9.66374 70.501 9.93931 70.7124 10.1507C70.9238 10.3621 71.2485 10.4678 71.6864 10.4678C71.8449 10.4678 71.9846 10.4451 72.1054 10.3998C72.2337 10.347 72.3432 10.2828 72.4338 10.2073C72.5319 10.1318 72.615 10.045 72.6829 9.94686C72.7584 9.84871 72.8264 9.75434 72.8868 9.66374H74.4949C74.3665 9.99594 74.2155 10.2866 74.0419 10.5357C73.8683 10.7849 73.6606 10.9963 73.419 11.1699C73.1775 11.336 72.8943 11.4606 72.5697 11.5436C72.2526 11.6267 71.8827 11.6682 71.4599 11.6682C71.0673 11.6682 70.7087 11.6154 70.384 11.5097C70.0669 11.404 69.7951 11.2454 69.5686 11.034C69.3421 10.8151 69.1647 10.5471 69.0364 10.23C68.9156 9.91289 68.8552 9.54295 68.8552 9.12016C68.8552 8.65207 68.9307 8.20286 69.0817 7.77252C69.2327 7.33463 69.4441 6.94959 69.7159 6.6174C69.9952 6.27766 70.3349 6.00964 70.7351 5.81334C71.1352 5.6095 71.5844 5.50757 72.0827 5.50757C72.4904 5.50757 72.8604 5.56042 73.1926 5.66612C73.5323 5.77182 73.8192 5.93414 74.0532 6.15308C74.2948 6.36448 74.4798 6.6325 74.6081 6.95714C74.744 7.27423 74.812 7.64417 74.812 8.06696C74.812 8.35385 74.7818 8.65962 74.7214 8.98426H70.4067ZM79.0046 7.37615C78.9971 7.12701 78.9216 6.93449 78.7781 6.79859C78.6422 6.65515 78.4157 6.58342 78.0986 6.58342C77.8117 6.58342 77.5739 6.62872 77.3852 6.71932C77.204 6.80237 77.1134 6.94959 77.1134 7.16098C77.1134 7.28933 77.1662 7.3988 77.2719 7.4894C77.3852 7.58 77.5777 7.66682 77.8495 7.74987L78.6535 8.01034C78.8725 8.07828 79.0726 8.15756 79.2537 8.24815C79.4425 8.33875 79.6048 8.452 79.7407 8.5879C79.8842 8.71624 79.9936 8.87101 80.0691 9.05221C80.1522 9.2334 80.1937 9.4448 80.1937 9.68639C80.1937 10.0488 80.1107 10.3583 79.9446 10.615C79.786 10.8642 79.5746 11.068 79.3104 11.2266C79.0461 11.3851 78.7479 11.4983 78.4157 11.5663C78.0835 11.6342 77.7476 11.6682 77.4078 11.6682C77.1209 11.6682 76.8303 11.638 76.5358 11.5776C76.2414 11.5172 75.9734 11.4191 75.7318 11.2832C75.4977 11.1397 75.3052 10.9548 75.1542 10.7283C75.0032 10.4942 74.9277 10.2036 74.9277 9.85626V9.61844H76.4112V9.81096C76.4112 9.94686 76.4452 10.0639 76.5132 10.162C76.5811 10.2602 76.6679 10.3432 76.7736 10.4112C76.8869 10.4716 77.0115 10.5206 77.1474 10.5584C77.2908 10.5886 77.4305 10.6037 77.5664 10.6037C77.6872 10.6037 77.808 10.5924 77.9288 10.5697C78.0496 10.5471 78.159 10.5093 78.2572 10.4565C78.3553 10.3961 78.4346 10.3244 78.495 10.2413C78.5554 10.1507 78.5856 10.0375 78.5856 9.90156C78.5856 9.69772 78.5327 9.55427 78.427 9.47122C78.3213 9.38818 78.1817 9.31645 78.008 9.25605L76.7736 8.85969C76.5698 8.79174 76.3886 8.72002 76.2301 8.64452C76.0791 8.56902 75.9469 8.47465 75.8337 8.3614C75.728 8.24815 75.6449 8.11226 75.5845 7.95371C75.5317 7.79517 75.5053 7.59887 75.5053 7.36483C75.5053 7.01754 75.5845 6.72687 75.7431 6.49282C75.9092 6.25878 76.1206 6.07004 76.3773 5.92659C76.634 5.77559 76.9133 5.6699 77.2153 5.6095C77.5248 5.54155 77.8193 5.50757 78.0986 5.50757C78.4157 5.50757 78.7215 5.534 79.0159 5.58685C79.3104 5.6397 79.5671 5.73784 79.786 5.88129C80.0125 6.01719 80.1899 6.20593 80.3183 6.44753C80.4466 6.68912 80.507 6.99866 80.4995 7.37615H79.0046ZM83.8126 5.66612H84.9677L84.7185 6.74197H83.5747L82.9745 9.65242C82.9594 9.71282 82.9481 9.76944 82.9406 9.82229C82.933 9.86759 82.9292 9.90156 82.9292 9.92421C82.9292 10.0299 82.9443 10.113 82.9745 10.1734C83.0123 10.2262 83.0576 10.2677 83.1104 10.2979C83.1633 10.3281 83.2199 10.347 83.2803 10.3546C83.3483 10.3546 83.4124 10.3546 83.4728 10.3546C83.6691 10.3546 83.8616 10.3432 84.0504 10.3206L83.7786 11.555C83.6125 11.5701 83.4464 11.5814 83.2803 11.5889C83.1142 11.604 82.9443 11.6116 82.7707 11.6116C82.5819 11.6116 82.3932 11.5927 82.2045 11.555C82.0233 11.5248 81.8572 11.4681 81.7062 11.3851C81.5627 11.2945 81.4457 11.1737 81.3551 11.0227C81.2721 10.8717 81.2343 10.6754 81.2419 10.4338C81.2419 10.3583 81.2494 10.2753 81.2645 10.1847C81.2796 10.0865 81.2985 9.98461 81.3211 9.87891L81.978 6.74197H80.9248L81.1739 5.66612H82.2045L82.5668 3.88814H84.175L83.8126 5.66612Z" fill="white"/>
</svg>
